<svg xmlns="http://www.w3.org/2000/svg" viewBox="0 0 784 784"><g><path fill="#8e8587" stroke="#333" stroke-miterlimit="10" stroke-width="12" d="M259.261 585.363a122.333 122.333 0 0 0 43.164 58.19l-4.805 74.493a179.707 179.707 0 0 1-38.359-132.683z"/><path fill="#636161" stroke="#333" stroke-miterlimit="10" stroke-width="12" d="M414.51 653.844l-23.999 94.67 100.47-49.488a636.964 636.964 0 0 0 126.156-213.331 709.18 709.18 0 0 1-202.627 168.15z"/><path fill="#333" d="M287.117 426.567l58.98-1.436a55.868 55.868 0 0 1-31.32 29.427 48.641 48.641 0 0 1-27.66-27.991z"/><path fill="#333" d="M222.4 419.938l-41.954-19.55a417.445 417.445 0 0 0 57.527 105.163l-28.014 5.91q31.754 21.077 64.129 42.157 20.312 13.224 40.525 26.222c13.638-1.316 34.3-3.155 59.596-4.767 38.959-2.484 62.141-2.727 62.138-3.702-.004-1.138-31.626-2.199-60.946-2.258-23.338-.047-42.485.62-55.254 1.209a789.17 789.17 0 0 0-77.653-52.235l22.137-4.923a478.677 478.677 0 0 1-20.41-27.998 479.133 479.133 0 0 1-28.66-48.37l6.84-16.858z"/><path fill="#353140" d="M196.487 265.544l-.63 40.127a413.164 413.164 0 0 0 91.585 25.369c92.673 14.396 165.605-7.235 165.434-8.655-.17-1.403-71.703 18.158-163.293-1.191a395.602 395.602 0 0 1-80.704-26.436l-12.392-29.214z"/><path fill="#353140" d="M190.173 321.858l1.991 74.662 62.653 24.566 76.39-26.122 96.461 23.732 82.979-35.695-80.945 26.887-99.482-20.807-73.764 20.844-43.099-26.638-23.184-61.429z"/><path fill="#333" d="M548.313 384.424l17.185 2.08a415.571 415.571 0 0 1-12.474 31.873 426.204 426.204 0 0 1-28.684 54.215l13.48 1.479a218.355 218.355 0 0 1-22.554 28.805 234.582 234.582 0 0 1-59.957 46.274l17.185 2.081L449.3 566.73l56.196-21.193-30.665-3.56a339.805 339.805 0 0 0 49.636-33.679 325.993 325.993 0 0 0 46.628-46.658l-30.938 3.177a226.364 226.364 0 0 0 25.62-41.51 215.624 215.624 0 0 0 16.995-51.478l-34.459 12.596z"/><path fill="#353140" d="M503.668 269.375a86.766 86.766 0 0 1-30.91 46.278l51.509-24.353a547.425 547.425 0 0 1 4.575 63.287 547.107 547.107 0 0 1-1.128 43.698 45.32 45.32 0 0 1-20.346 30.002 19.855 19.855 0 0 1 6.863 4.892c5.683 6.302 5.253 14.27 5.112 16.062a69.252 69.252 0 0 0 19.55-41.954q.672-23.285.34-48.4-.35-23.638-1.618-45.655l33.49-16.497a33.898 33.898 0 0 0 1.341-28.022l-33.103 11.597a13.055 13.055 0 0 0 .765-17.049z"/><path fill="#5ebce1" d="M498.753 434.567l5.285-4.512a20.355 20.355 0 0 1 8.237 5.87 20.999 20.999 0 0 1 4.717 13.71l-6.855 2.36-11.384-17.428z"/><path fill="#333" d="M575.223 299.67l-5.46 25.088-5.459 25.087A111.731 111.731 0 0 0 608.578 340a285.794 285.794 0 0 1-25.932 119.166q13.416-6.48 26.831-12.962a80.386 80.386 0 0 1-3.7 21.167 81.374 81.374 0 0 1-16.82 29.41c7.644-6.026 23.382-20.217 31.305-43.926a91.424 91.424 0 0 0 4.67-29.79l-21.15 10.8a399.315 399.315 0 0 0 24.164-122.495 245.334 245.334 0 0 1-51.114 26.705 293.73 293.73 0 0 0-1.609-38.405z"/><ellipse cx="421.104" cy="360.582" fill="none" stroke="#afdfe6" stroke-miterlimit="10" stroke-width="2" rx="5.407" ry="5.175"/><path fill="#333" d="M396.598 355.313a18.317 18.317 0 0 0 4.644 12.957 19.798 19.798 0 0 0 10.994 6.047 19.206 19.206 0 0 1-7.642-10.767 17.945 17.945 0 0 1 .29-9.75l-8.286 1.513z"/><path fill="#333" d="M334.066 585.384s49.401 71.872 48.278 71.032-2.6-44.782-2.6-44.782z"/><path fill="#a9483f" d="M211.401 268.785a147.895 147.895 0 0 0-55.287-26.982 784.444 784.444 0 0 0-58.712 247.942 676.85 676.85 0 0 1 43.738-322.779 616.716 616.716 0 0 1 50.041 67.745 615.23 615.23 0 0 1 20.22 34.074z"/><path fill="#333" d="M211.653 258.565a247.36 247.36 0 0 1 .12-39.786 256.131 256.131 0 0 1 6.485-39.735l15.438 21.925a237.092 237.092 0 0 1 14.58-52.578 223.775 223.775 0 0 1 19.953-38.144l17.134 43.525a337.045 337.045 0 0 1 49.445-51.659A283.271 283.271 0 0 1 408.338 57l-13.948 44.753a786.34 786.34 0 0 1 73.707 8.008 781.621 781.621 0 0 1 48.99 9.289l-21.624 31.145 6.508-25.131a297.561 297.561 0 0 0-68.907-5.642 312.855 312.855 0 0 0-54.59 6.75l1.433-26.23a200.723 200.723 0 0 0-37.505 21.069c-26.559 18.836-45.272 41.214-57.183 57.945l-18.209-23.852a136.533 136.533 0 0 0-14.902 24.64 149.816 149.816 0 0 0-12.932 44.973l-15.331-12.612c-1.74 4.095-3.458 8.6-5.051 13.504a168.678 168.678 0 0 0-7.141 32.956z"/><path fill="#333" d="M225.332 348.438l12.81 9.584 54.173 3.292-.505-2.87-66.478-10.006z"/><path fill="#333" d="M380.343 360.597l55.251-9.744 13.706-15.356-69.38 21.699.423 3.401z"/><path fill="#333" d="M252.134 358.154a19.177 19.177 0 0 0 14.552 20.643 19.987 19.987 0 0 1-7.029-11.631 19.544 19.544 0 0 1 .828-10.15z"/><circle cx="274.464" cy="368.955" r="5.403" fill="none" stroke="#afdfe6" stroke-miterlimit="10" stroke-width="2"/><path fill="#333" d="M303.886 509.517c2.384 1.192 138.263-13.111 138.263-13.111l-26.223 13.111z"/><path fill="#333" d="M492.21 155.517a144.963 144.963 0 0 1 90.585-40.526 201.052 201.052 0 0 1 3.576 53.637c-3.08 45.065-20.81 78.658-32.182 96.545-1.192-33.374 0-72.707-1.192-108.465z"/><path fill="#333" d="M232.725 148.99a242.504 242.504 0 0 1 19.627-70.493 93.792 93.792 0 0 1 41.034 33.432l-34.299-5.579z"/><path fill="#333" d="M576.836 248.486l29.798-19.07-15.495 64.363h25.03l-29.798 28.606 5.96-16.686-15.495-11.92 15.495-38.141-15.495-7.152z"/><path fill="#353140" d="M286.644 274.726a379.652 379.652 0 0 0 89.587 7.729c18.553-.653 32.407-2.57 96.424-11.116a209.857 209.857 0 0 1-31.698 12.905 206.958 206.958 0 0 1-39.334 8.343c-28.596 3.128-50.777-.826-65.555-3.575a265.798 265.798 0 0 1-49.424-14.286z"/><path fill="#333" d="M560.857 112.929l37.009-1.154 1.631 58.49a108.914 108.914 0 0 0 13.06-69.927 132.5 132.5 0 0 0-51.7 12.59z"/><path fill="#333" d="M285.285 260.664l7.323-47.411 29.938 19.186 44.583-75.636 22.101 45.483 52.743-30.688-22.441 51.01-10.044-11.799-40.216 22.914-8.737-27.239-40.066 42.894-19.487-10.021-15.697 21.307z"/><path fill="#0091e4" d="M603 715a314.036 314.036 0 0 0 29-94 310.464 310.464 0 0 0 3-50l59 61a317.056 317.056 0 0 1-91 83z"/><path fill="#4aaad5" d="M727 580a782.979 782.979 0 0 0-4-154 782.975 782.975 0 0 0-34-150l91 111a396.858 396.858 0 0 1-53 193z"/><path fill="#64c6f4" d="M168 706a302.676 302.676 0 0 1-53-163l-46 60a381.293 381.293 0 0 0 99 103z"/></g><circle cx="392" cy="392" r="386" fill="none" stroke="#333" stroke-miterlimit="10" stroke-width="12"/></svg>