<svg viewBox="0 0 1024 1024"><path fill="#eb6349" d="M977.613 374.17c0-155.239-121.856-281.6-271.36-281.6A265.523 265.523 0 0 0 512 178.79a265.882 265.882 0 0 0-194.253-86.22c-149.606 0-271.36 126.259-271.36 281.6a122.88 122.88 0 0 0 .922 13.67v3.84a239.514 239.514 0 0 0 19.61 89.6c.409 1.178.819 2.304 1.33 3.328C150.939 683.11 469.249 911.36 482.766 921.6a46.694 46.694 0 0 0 57.19-.256c11.571-9.011 283.085-204.442 390.861-389.12a191.693 191.693 0 0 0 9.882-17.51c.819-1.69 1.587-3.328 2.508-5.12l.359-.768a17.306 17.306 0 0 1 1.177-1.895 299.878 299.878 0 0 0 15.668-35.84 223.795 223.795 0 0 0 16.64-79.77v-5.12a113.05 113.05 0 0 0 .563-12.031z"/></svg>