<svg viewBox="0 0 2398 1024"><path fill="hsla(0, 0%, 100%, 0.19)" d="M2369.744 0v26.932h-53.854v26.931h-26.931V161.58h26.931v-26.93h53.854v-26.932h26.931V0h-26.931zm-538.575 161.57h-53.854v26.932h-53.854v26.932h-26.931V107.717h-26.932V80.785h-53.854V53.854h-26.931v215.434h-26.932v26.931h-53.854v26.932h-53.853v26.931h-53.854V457.8h53.854v-26.931h53.853v-26.932h53.854v-26.932h26.932v484.722h26.931v26.932h53.854v26.931h26.932V323.151h26.931v-26.932h53.854v-26.931h53.854v-26.932h53.853V134.639h-53.853v26.932zm-1400.31 0h-53.855v26.932h-53.853v26.932h-53.854v26.931h-53.854v26.932H161.59v26.932h-53.854v26.931H53.882v26.932H.03v646.292h53.853v26.932h53.854V592.457h53.854v-26.931h53.853v-26.932h53.854v-26.931h53.854v-80.786h-53.854v26.932h-53.854v26.931H161.59v26.932h-53.854V403.955h53.854v-26.932h53.853v-26.931h53.854V323.16h53.854v-26.93h53.853v-26.932h53.854v-26.932h53.854V134.65h-53.854v26.922zm700.154 0h-53.853v430.86h-53.854v26.931h-53.854v26.932H915.6v26.932h-53.854v26.931H807.89V323.151h-53.854v26.931h-53.853v430.859h53.853v26.931h53.854v26.932h53.854v-26.932h53.854v-26.931h53.853v-26.932h53.854v-26.932h53.854v-26.931h53.853v-26.932h53.854V134.64h-53.854v26.932zm1238.73 80.786h-53.853v26.932h-26.931v592.438h26.931v-26.932h53.854v-26.931h26.931V215.424h-26.931v26.932z"/></svg>