<svg viewBox="0 0 1024 1024"><path d="M438.4 849.1l222.7-646.7c.2-.5.3-1.1.4-1.6L438.4 849.1z"/><path fill="#fff" d="M681.756 121.4h-76.8c-3.868 0-7.395 2.504-8.647 6.145L333.028 892.018c-.342.91-.456 1.934-.456 2.958 0 5.006 4.096 9.102 9.103 9.102h77.141c3.868 0 7.396-2.503 8.647-6.144l.797-2.39 253.838-737.62 8.42-24.349c.34-.91.454-1.934.454-2.958-.113-5.12-4.096-9.216-9.216-9.216zm333.824 379.336a19.61 19.61 0 0 0-3.072-3.072L763.335 302.763c-3.982-3.072-9.671-2.39-12.743 1.593a8.967 8.967 0 0 0-1.934 5.575v92.501c0 2.844 1.251 5.461 3.527 7.168L883.029 512 752.185 614.4c-2.162 1.707-3.527 4.324-3.527 7.168v92.501c0 5.007 4.096 9.103 9.102 9.103a8.967 8.967 0 0 0 5.575-1.935l249.173-194.901c7.851-6.144 9.33-17.636 3.072-25.6zM260.665 302.763L11.492 497.664a19.61 19.61 0 0 0-3.072 3.072c-6.144 7.964-4.78 19.342 3.072 25.6l249.173 194.901a8.967 8.967 0 0 0 5.575 1.935c5.006 0 9.102-4.096 9.102-9.103v-92.501c0-2.844-1.251-5.461-3.527-7.168L140.971 512l130.844-102.4c2.162-1.707 3.527-4.324 3.527-7.168v-92.501a8.967 8.967 0 0 0-1.934-5.575c-3.072-3.983-8.76-4.665-12.743-1.593z"/></svg>