<svg viewBox="0 0 1024 1024"><path fill="#fff" d="M474.262 771.552c-1.895 0-3.626-.165-5.438-.412-8.652-1.483-16.233-6.18-21.341-13.348-5.109-7.169-7.169-15.903-5.686-24.555l75.559-453.268c2.637-15.985 16.232-27.521 32.3-27.521 1.812 0 3.708.165 5.52.494 17.88 2.967 30.075 20.023 27.109 37.903l-75.558 453.269c-2.72 15.902-16.315 27.438-32.465 27.438zm188.855-75.558c-9.393 0-18.375-4.038-24.554-11.042-12.03-13.595-10.877-34.442 2.719-46.472L783.5 512 651.828 394.913c-6.591-5.85-10.464-13.925-10.958-22.66-.495-8.816 2.39-17.22 8.24-23.812 6.262-7.004 15.16-11.041 24.554-11.041 8.075 0 15.82 2.966 21.835 8.322l184.406 163.806c.659.66 1.07 1.483 1.07 2.472 0 .906-.411 1.813-1.07 2.472L684.952 687.754a33.132 33.132 0 0 1-21.835 8.24zM350.254 686.6a32.795 32.795 0 0 1-21.836-8.322L144.095 514.472c-.659-.66-1.07-1.483-1.07-2.472 0-.906.411-1.813 1.07-2.472l194.953-173.282a32.952 32.952 0 0 1 21.835-8.322c9.393 0 18.375 4.038 24.555 11.041 12.03 13.596 10.876 34.442-2.72 46.473L240.5 512l131.672 117.004c6.591 5.85 10.464 13.926 10.958 22.66.495 8.816-2.39 17.22-8.24 23.813-6.18 7.086-15.16 11.123-24.636 11.123z"/></svg>