<svg viewBox="0 0 1024 1024"><path fill="#fff" d="M876.38 80.967l68.643 68.692a145.636 145.636 0 0 1 0 205.928L821.961 478.698l136.266 136.266a145.636 145.636 0 0 1 0 205.978L820.942 958.227a145.636 145.636 0 0 1-205.978 0L478.698 821.961l-106.8 106.8a48.545 48.545 0 0 1-24.806 13.252L89.608 993.568a48.545 48.545 0 0 1-57.089-57.137l51.458-257.436a48.545 48.545 0 0 1 13.301-24.758L670.403 80.92a145.636 145.636 0 0 1 205.977 0zM770.455 530.156l-240.3 240.299 41.895 41.894 51.507-51.458a36.409 36.409 0 0 1 55.002 47.38l-3.496 4.078-51.458 51.458 42.866 42.962a72.818 72.818 0 0 0 97.43 5l5.534-5L906.77 769.435a72.818 72.818 0 0 0 5-97.43l-5-5.534-136.314-136.315zm-177.287-268.94L153.93 700.452l-42.866 214.57 214.521-42.962 439.237-439.237-171.655-171.607zM402.045 59.219l6.99 6.554 138.306 138.305-51.458 51.458L357.529 117.23a72.818 72.818 0 0 0-97.43-5l-5.534 5L117.23 254.565a72.818 72.818 0 0 0-5 97.43l5 5.534 42.913 42.914 85.828-85.828a36.409 36.409 0 0 1 55.002 47.429l-3.495 4.078-85.828 85.828 43.933 43.884-51.506 51.458L65.724 409.036a145.636 145.636 0 0 1-6.505-198.987l6.554-6.99L203.058 65.772a145.636 145.636 0 0 1 198.987-6.554zm319.913 73.255l-77.284 77.235L816.33 381.365l77.187-77.235a72.818 72.818 0 0 0 0-103.013l-68.643-68.643a72.818 72.818 0 0 0-102.916 0z"/></svg>