<svg viewBox="0 0 1024 1024"><path fill="#fdfdfd" d="M661.766 159.885c-27.696 12.118-34.048 40.97-13.846 61.168 9.808 9.811 19.04 11.542 59.434 11.542 56.553 0 94.64 15.002 123.497 48.474 35.2 39.817 39.239 51.936 39.239 124.646 0 64.63 0 65.786 15.001 74.442 34.624 19.619 57.709-4.618 65.786-69.248 10.387-84.253-39.815-182.355-115.408-227.367-49.632-28.85-134.464-40.393-173.703-23.657zM377.85 267.219c-64.634 23.082-126.957 67.517-193.895 139.072C25.261 574.797 35.648 735.222 210.5 820.624c181.776 88.867 426.455 59.437 559.757-67.514 99.83-94.643 87.715-213.52-25.968-253.913-20.202-6.925-26.547-12.119-23.664-18.467 10.387-25.39 13.85-54.82 8.08-72.132-17.891-54.822-83.098-67.516-180.045-34.624l-38.665 13.27 3.462-38.662c4.042-45.587-5.77-70.403-32.893-84.252-22.502-11.54-65.782-10.384-102.713 2.89zm160.425 223.325c85.981 23.664 138.496 75.597 138.496 137.34 0 68.673-61.171 130.423-160.429 163.313-53.088 17.312-151.766 20.771-200.24 7.504-91.753-25.968-143.69-76.749-143.69-141.962 0-35.779 15.582-66.937 49.63-98.675 31.737-30.006 55.974-44.438 102.716-60.016 70.404-23.66 146-26.547 213.517-7.504zm-181.779 55.974c-58.282 27.127-89.443 68.672-89.443 120.605 0 47.325 20.774 79.639 66.361 103.875 35.2 19.044 99.834 17.312 139.076-2.883 50.204-26.547 83.097-75.597 83.097-123.497-.582-39.239-35.203-85.981-76.173-102.714-32.892-13.846-88.294-11.542-122.918 4.614zm42.128 108.487c4.038 4.041 6.925 13.85 6.925 22.505 0 28.858-48.474 52.519-68.096 32.893-10.963-10.963-8.077-38.086 4.617-50.78 12.695-12.695 45.588-15.578 56.554-4.618zm272.954-376.823c-26.548 26.548-8.656 58.285 33.468 58.285 36.352 0 52.51 18.467 52.51 60.016 0 25.968 2.313 33.469 12.7 40.394 31.162 21.93 56.554-2.307 56.554-53.667 0-62.9-45.015-110.221-109.07-114.839-28.854-2.307-35.775-.576-46.162 9.811z"/></svg>