<svg width="200" height="200" class="icon" viewBox="0 0 1024 1024"><path fill="#fdfdfd" d="M871.201 512c0 198.43-161.06 359.201-359.78 359.201-164.827 0-303.584-110.512-346.166-261.29l137.887 56.922c9.27 46.494 50.549 81.69 99.794 81.69 56.777 0 104.14-46.928 101.677-106.457l122.39-87.194c75.46 1.883 138.755-59.239 138.755-135.424 0-74.737-60.832-135.425-135.714-135.425S494.33 344.855 494.33 419.448v1.738l-85.745 124.127c-22.45-1.304-44.466 4.925-63.005 17.526l-192.781-79.662c14.773-184.96 169.606-330.378 358.622-330.378C710.14 152.799 871.2 313.57 871.2 512zM378.313 697.829l-44.176-18.25a76.46 76.46 0 0 0 39.397 37.369c38.961 16.222 83.717-2.318 99.939-41.135 7.821-18.829 7.966-39.54.145-58.37-7.822-18.83-22.45-33.603-41.28-41.424-18.684-7.821-38.672-7.532-56.342-.87l45.624 18.83c28.678 11.877 42.293 44.755 30.272 73.434-12.022 28.823-44.9 42.293-73.579 30.416zm251.731-188.146c-49.825 0-90.38-40.555-90.38-90.235s40.555-90.235 90.38-90.235 90.38 40.555 90.38 90.235-40.41 90.235-90.38 90.235zm.145-22.595c37.513 0 67.93-30.417 67.93-67.785 0-37.514-30.417-67.785-67.93-67.785s-67.93 30.416-67.93 67.785c.145 37.368 30.561 67.785 67.93 67.785z"/></svg>