<svg viewBox="0 0 1025 1024"><path fill="#fdfdfd" d="M883.16 514.596c0 80.831-23.731 153.135-70.821 217.652-47.09 64.518-107.9 109.012-182.428 133.855-8.528 1.483-15.203.37-18.91-3.337-4.08-3.708-5.933-8.528-5.933-14.46V746.708c0-31.146-8.528-54.135-25.214-68.596 18.169-1.854 34.854-4.82 49.315-8.528 14.46-3.708 29.663-10.011 45.236-18.91s28.551-19.281 38.933-31.888c10.382-12.607 18.91-29.663 25.585-50.798 6.674-21.135 10.01-45.236 10.01-72.674 0-38.933-12.606-71.933-38.19-99.372 11.865-29.292 10.753-61.922-3.708-98.259-8.9-2.966-21.877-1.112-38.933 5.191s-31.888 13.349-44.495 21.135l-18.168 11.495c-30.034-8.528-60.81-12.607-92.697-12.607-31.888 0-62.664 4.079-92.698 12.607-5.19-3.708-11.865-7.787-20.393-12.978s-21.876-11.494-40.416-18.54c-18.169-7.415-32.258-9.27-41.528-6.674-14.09 36.338-15.203 68.967-3.337 98.26-25.214 27.809-38.192 60.809-38.192 99.742 0 27.438 3.338 51.54 10.012 72.303 6.674 20.764 15.202 37.82 25.213 50.798 10.382 12.978 23.36 23.73 38.933 32.259s30.776 14.831 45.236 18.91c14.461 3.708 31.147 6.674 49.315 8.528-12.977 11.495-20.764 28.18-23.73 49.686-6.674 3.337-14.09 5.562-21.877 7.045-7.786 1.483-17.056 2.225-27.438 2.225-10.753 0-21.135-3.337-31.517-10.382s-19.281-17.057-26.697-30.034c-5.933-10.382-14.09-18.54-23.36-25.214s-17.427-10.382-23.73-11.494l-9.64-1.484c-6.675 0-11.495.742-14.09 2.225-2.596 1.483-3.338 3.337-2.225 5.562 1.112 2.225 2.595 4.45 4.45 6.674 1.853 2.225 4.078 4.079 6.303 5.933l3.337 2.225c7.045 3.337 14.09 9.27 21.135 18.168 7.045 8.9 11.865 17.057 15.202 24.472l4.82 11.124c4.079 12.236 11.124 22.247 21.135 29.663s20.764 12.236 32.259 14.46c11.494 2.226 22.618 3.338 33.37 3.338 10.754 0 19.653-.37 26.698-1.854l11.123-1.854c0 12.236 0 26.697.371 43.011 0 16.315.37 25.214.37 25.956 0 5.932-2.224 10.753-6.303 14.46s-10.752 4.82-19.28 3.338c-74.53-24.843-135.338-69.338-182.429-133.855-47.46-63.776-70.82-136.45-70.82-216.911 0-67.113 16.685-129.035 49.685-185.766 33-56.73 77.866-101.596 134.968-134.967 56.73-33 118.652-49.685 185.765-49.685s129.034 16.685 185.765 49.685c56.73 33 101.596 77.866 134.967 134.967 33 56.36 49.685 118.653 49.685 185.766zm0 0"/></svg>