<svg viewBox="0 0 1024 1024"><path fill="#fdfdfd" d="M749.305 296.029h-42.188l36.914-36.914c15.82-15.82 15.82-47.461 0-63.282s-47.46-15.82-63.281 0L575.281 296.03H448.72L343.25 195.833c-15.82-15.82-47.46-15.82-63.281 0s-15.82 47.461 0 63.282l36.914 36.914h-42.188c-73.828 0-131.836 58.007-131.836 131.836V712.63c0 79.102 58.008 137.11 131.836 137.11h469.336c73.828 0 131.836-58.008 131.836-131.836v-290.04c5.274-73.828-52.734-131.835-126.562-131.835zm36.914 416.601c0 26.367-21.094 47.461-47.461 47.461h-458.79c-26.366 0-47.46-21.094-47.46-47.46V433.137c0-26.367 21.094-47.46 47.46-47.46h458.79c26.367 0 47.46 21.093 47.46 47.46V712.63zM374.89 480.6c-26.368 0-47.461 21.094-47.461 47.46v47.462c0 26.367 21.093 47.46 47.46 47.46s47.462-21.093 47.462-47.46V528.06c0-26.367-21.094-47.461-47.461-47.461zm274.218 0c-26.367 0-47.46 21.094-47.46 47.46v47.462c0 26.367 21.093 47.46 47.46 47.46s47.461-21.093 47.461-47.46V528.06c0-26.367-21.093-47.461-47.46-47.461z"/></svg>