<svg width="200" height="200" class="icon" viewBox="0 0 1024 1024"><path fill="#fdfdfd" d="M561.406 247.719v537.093h56.25l23.625 66.938 99.75-66.938h123.282V247.72H561.406zm232.219 465.937h-56.156l-70.407 47.25-16.687-47.25H633.5V321.031h160.031v392.625zM525.219 488.47h-124.5c1.969-42.094 4.031-97.781 6.187-162.094h122.719l-.094-7.594c0-.562-.187-13.781-2.156-27.281-1.969-14.063-6.188-32.719-19.688-32.719H301.813c4.125-19.312 14.72-65.344 27.563-87.937l6-10.5-12.094-.656c-.75 0-18.375-.844-38.812 9.937C251 187.438 236 222.5 229.438 248.75c-17.25 68.531-41.813 116.156-52.22 136.5-3.093 6-4.968 9.563-5.812 12-1.687 4.594-.75 9.188 2.625 12.188 9.844 8.906 35.813-2.72 36.094-2.813.563-.281 1.219-.563 2.063-.938 13.03-5.906 51.656-23.437 65.437-79.218h53.156c.656 30.187 2.906 129.75 2.719 162.094H201.312l-1.968 1.406c-21.656 15.844-28.594 59.25-28.875 61.125l-1.313 8.625H325.72c-11.531 73.406-24.844 106.312-31.875 119.437a975.374 975.374 0 0 0-10.031 19.5c-19.97 39.563-40.688 80.438-118.407 144-3.375 2.625-6.562 7.5-4.5 12.844 2.25 5.906 8.719 8.531 23.063 8.531 5.062 0 11.062-.281 18.187-.937 46.781-4.125 94.5-16.875 126.656-82.125 15.938-32.907 29.72-67.219 41.157-102.094l127.969 150 4.687-11.25c.75-1.781 17.813-43.406 4.781-89.906l-.469-1.688L405.594 610.72l-20.625 15.562c6-24.468 9.937-46.781 11.719-66.656h148.78v-7.5c0-37.594-17.343-59.906-18-60.844l-2.25-2.812z"/></svg>