<svg width="200" height="200" class="icon" viewBox="0 0 1024 1024"><path fill="#fdfdfd" d="M230.577 386.57L377.59 789.221C274.753 739.398 203.927 633.955 203.927 512c0-44.755 9.56-87.048 26.65-125.43zM719.99 496.501c0-38.093-13.615-64.453-25.347-85.02-15.642-25.347-30.271-46.928-30.271-72.275 0-28.389 21.436-54.75 51.708-54.75 1.303 0 2.607.145 4.055.29-54.894-50.26-127.893-80.965-208.134-80.965-107.616 0-202.34 55.184-257.524 138.9 7.242.29 14.05.435 19.843.435 32.154 0 82.124-3.91 82.124-3.91 16.656-1.014 18.539 23.464 2.027 25.347 0 0-16.656 1.883-35.196 2.896l112.25 333.71 67.496-202.196-47.942-131.514c-16.656-1.013-32.299-2.896-32.299-2.896-16.657-1.014-14.629-26.361 1.883-25.347 0 0 50.838 3.91 81.11 3.91 32.154 0 82.124-3.91 82.124-3.91 16.656-1.014 18.54 23.464 2.028 25.347 0 0-16.657 1.883-35.196 2.896l111.381 331.248 30.706-102.691c13.035-42.583 23.174-73.144 23.174-99.505zM517.36 538.94l-92.407 268.677c27.664 8.111 56.777 12.601 87.048 12.601 35.92 0 70.247-6.228 102.257-17.526-.87-1.303-1.594-2.751-2.173-4.2L517.359 538.94zm265.056-174.82c1.304 9.848 2.028 20.277 2.028 31.719 0 31.285-5.794 66.336-23.464 110.367L666.833 778.36C758.516 724.914 820.073 625.7 820.073 512c0-53.59-13.615-103.995-37.658-147.88zM871.2 512c0 198.14-161.206 359.201-359.201 359.201-198.14 0-359.201-161.206-359.201-359.201 0-198.14 161.06-359.201 359.201-359.201 197.995 0 359.201 161.06 359.201 359.201zm-16.511 0c0-189.015-153.82-342.69-342.69-342.69-189.015 0-342.69 153.675-342.69 342.69S323.13 854.69 512 854.69c189.015 0 342.69-153.675 342.69-342.69z"/></svg>